# xmcd CD database file
#
# Track frame offsets:
#	150
#	18975
#	35172
#
# Disc length: 718 seconds
#
# Revision: 0
# Processed by: cddbd v1.5PL3 Copyright (c) Steve Scherf et al.
# Submitted via: CDex 1.51
#
DISCID=1e02cc03
DTITLE=森下由実子 - SOMEBODY TO BELIEVE
DYEAR=1993
DGENRE=Japanese Pop
TTITLE0=SOMEBODY TO BELIEVE
TTITLE1=CALL MY NAME
TTITLE2=SOMEBODY TO BELIEVE (ORIGINAL KARAOKE)
EXTD=YEAR: 1993
EXTT0=
EXTT1=
EXTT2=
PLAYORDER=
